# xmcd
#
# Track frame offsets: 
#        150
#        14700
#        24420
#        33673
#        48140
#        59303
#        73620
#        88204
#        102799
#        113884
#        119234
#        125238
#        131714
#        146189
#
# Disc length: 2111 seconds
#
# Revision: 0
# Processed by: cddbd v1.5.2PL0 Copyright (c) Steve Scherf et al.
# Submitted via: ExactAudioCopyFreeDBPlugin 1.0
#
DISCID=d9083d0e
DTITLE=The Chandeliers - Queen Of Hearts
DYEAR=2007
DGENRE=Country
TTITLE0=I Dreamt I Could Fly
TTITLE1=Chinese Wispers
TTITLE2=Country Girl
TTITLE3=Ballard Of A Lonesome Rider
TTITLE4=Song for Victoria
TTITLE5=Live Together
TTITLE6=Sunrise
TTITLE7=Rainy Day
TTITLE8=Miguel Rodriguez
TTITLE9=Lucky Day
TTITLE10=Rock And Roll
TTITLE11=Silicone
TTITLE12=George Harrison
TTITLE13=Airplane
EXTD=
EXTT0=
EXTT1=
EXTT2=
EXTT3=
EXTT4=
EXTT5=
EXTT6=
EXTT7=
EXTT8=
EXTT9=
EXTT10=
EXTT11=
EXTT12=
EXTT13=
PLAYORDER=
